HIERARCHY
ROOT pelvis
{
  OFFSET 0 100 0
  CHANNELS 6 Xposition Yposition Zposition Zrotation Xrotation Yrotation
  JOINT pelvis_right_femur
  {
    OFFSET -10.78128 -3.44521 -0.5502486
    CHANNELS 3 Zrotation Xrotation Yrotation
    JOINT right_femur_tibia
    {
      OFFSET -0.8047443 -44.0398 -0.1307829
      CHANNELS 3 Zrotation Xrotation Yrotation
      JOINT right_tibia_foot
      {
        OFFSET 3.006224 -47.83518 -5
        CHANNELS 3 Zrotation Xrotation Yrotation
        End Site
        {
          OFFSET 0 -5 15
        }
      }
    }
  }
  JOINT pelvis_left_femur
  {
    OFFSET 10.78128 -3.44521 -0.5502486
    CHANNELS 3 Zrotation Xrotation Yrotation
    JOINT left_femur_tibia
    {
      OFFSET 0.8047443 -44.0398 -0.1307829
      CHANNELS 3 Zrotation Xrotation Yrotation
      JOINT left_tibia_foot
      {
        OFFSET -4.370144 -48.10324 -4.275266
        CHANNELS 3 Zrotation Xrotation Yrotation
        End Site
        {
          OFFSET 0 -5 15
        }
      }
    }
  }
  JOINT pelvis_spine1
  {
    OFFSET 0 6.468898 -3.129235
    CHANNELS 3 Zrotation Xrotation Yrotation
    JOINT spine1
    {
      OFFSET 0 23.15396 4.99043
      CHANNELS 3 Zrotation Xrotation Yrotation
      JOINT spine2
      {
        OFFSET 0 20.79997 -5.064912
        CHANNELS 3 Zrotation Xrotation Yrotation
        JOINT neck
        {
          OFFSET 0 14.38658 9.616178
          CHANNELS 3 Zrotation Xrotation Yrotation
          End Site
          {
            OFFSET 0 20 0
          }
        }
      }
      JOINT right_manubrium
      {
        OFFSET -5.722621 16.35077 3.967754
        CHANNELS 3 Zrotation Xrotation Yrotation
        JOINT right_clavicle
        {
          OFFSET -13.16364 1.694482 -4.693211
          CHANNELS 3 Zrotation Xrotation Yrotation
          JOINT right_humerus
          {
            OFFSET -28.5034 -0.3100689 -2.792744
            CHANNELS 3 Zrotation Xrotation Yrotation
            JOINT right_radius
            {
              OFFSET -25.15693 0.02248979 -1.271978
              CHANNELS 3 Zrotation Xrotation Yrotation
              End Site
              {
                OFFSET -15 0 0
              }
            }
          }
        }
      }
      JOINT left_manubrium
      {
        OFFSET 5.722621 16.35077 3.967754
        CHANNELS 3 Zrotation Xrotation Yrotation
        JOINT left_clavicle
        {
          OFFSET 13.16364 1.694482 -4.693211
          CHANNELS 3 Zrotation Xrotation Yrotation
          JOINT left_humerus
          {
            OFFSET 29.39168 -1.063119 -2.237045
            CHANNELS 3 Zrotation Xrotation Yrotation
            JOINT left_radius
            {
              OFFSET 24.59957 -0.9528479 0.9047498
              CHANNELS 3 Zrotation Xrotation Yrotation
              End Site
              {
                OFFSET 15 -0 -0
              }
            }
          }
        }
      }
    }
  }
}
MOTION
Frames: 23
Frame Time: 0.0416666666667
0 103.5113 0 1.615292 -0.8072526 0.0698631 2.716387 -14.05634 10.45292 -0 41.99697 -0 -5.726927 -18.47058 -3.87834 -7.740348 9.19473 -22.69035 -0 6.361974 -0 15.60999 -11.60785 28.77354 -4.557824 -4.503748 4.769627 2.890305 10.40387 -7.857582 1.051197 22.33296 6.459681 2.300548 -24.27059 9.423411 7.015146 -20.09406 12.25931 85.63474 37.6148 -18.02933 -0 0 15.12329 -7.052333 8.231104 5.224889 4.671574 -19.11263 -1.823499 -91.44106 21.13761 19.91811 0 0 -13.80347 14.8208 14.53918 -2.993836
0.2850145 103.6461 1.545958 1.31822 -0.7091164 0.1257278 2.994267 -15.8051 9.872574 -0 41.31974 -0 -6.222985 -17.11231 -3.717421 -7.5257 9.268872 -21.94015 -0 6.089462 -0 15.56152 -12.07548 28.16831 -4.401407 -4.167887 4.566363 3.005763 10.5391 -8.003576 0.9894846 22.24732 6.524042 2.364622 -24.53182 9.335068 6.785791 -20.07043 12.35538 85.93444 36.93197 -18.28386 -0 0 14.55092 -7.45298 8.065226 5.570114 4.796513 -19.61843 -1.959361 -91.02378 20.64497 19.43741 0 0 -14.27572 15.41063 14.38678 -3.519937
0.5502094 103.4036 3.406242 0.3461485 -0.3659265 0.2071364 3.967451 -20.99774 8.285842 -0 36.92243 -0 -6.587897 -13.96255 -3.338801 -6.673573 10.19989 -20.61076 -0 5.155843 -0 12.27093 -15.64114 26.02768 -3.681875 -3.087276 4.08692 3.120321 10.0812 -8.12272 1.106486 21.99611 6.82933 2.611069 -25.37266 9.53542 5.679904 -19.76838 12.09605 86.60197 34.29245 -19.14066 -0 0 13.93013 -8.505752 8.069517 5.903449 5.543302 -20.53333 -1.880941 -91.19147 22.3103 19.18508 0 0 -15.83865 13.53474 15.47335 -1.17211
0.8069538 102.8505 5.55807 -0.2333462 0.1557523 0.3231192 4.677673 -24.61409 7.458341 -0 32.63114 -0 -6.485113 -12.13763 -3.006451 -6.154012 10.97617 -19.9063 -0 4.681297 -0 9.78594 -18.30969 24.64502 -3.217077 -2.524174 3.96272 3.129572 9.644339 -8.126514 1.318064 21.64729 6.998877 2.830081 -25.86676 9.789103 5.041228 -19.45938 11.78747 86.84566 32.8543 -19.62194 -0 0 13.87251 -9.062459 8.41202 5.788272 6.355422 -21.0694 -1.540118 -91.39076 23.15813 18.90744 0 0 -16.90812 12.51367 16.17751 -0.04670357
1.067417 102.046 8.047698 -0.7143927 1.03238 0.4774592 5.499066 -27.94623 7.028996 -0 27.86083 -0 -6.323706 -10.44915 -2.55977 -5.768965 11.71046 -19.33762 -0 4.645549 -0 7.659243 -20.673 23.46089 -2.850145 -2.218135 4.017839 3.157996 9.28225 -8.172045 1.536941 21.07526 7.152436 3.136864 -26.37317 10.01702 4.73431 -19.14817 11.49272 86.87814 32.1401 -20.0783 -0 0 14.02686 -9.340002 8.935262 5.465788 7.297249 -21.58618 -0.9970864 -91.60653 23.37422 18.62827 0 0 -17.87468 12.09422 16.57776 0.2718366
1.325939 101.0754 10.95804 -1.161517 2.04527 0.6994036 6.373358 -30.91139 6.747343 -0 23.25812 -0 -6.348814 -8.542587 -2.080478 -5.438861 12.54538 -18.63428 -0 5.325316 -0 5.665109 -22.57891 22.06208 -2.538429 -2.034582 4.028422 3.260797 9.003944 -8.31943 1.677978 20.42405 7.302418 3.472679 -26.9 10.12797 4.593313 -18.77746 11.24037 86.94596 31.77289 -20.66841 -0 0 13.94904 -9.488357 9.410795 5.173003 8.114812 -22.10438 -0.4686481 -91.68023 23.31175 18.23891 0 0 -18.84671 11.85551 16.64119 0.3409902
1.574474 100.0487 14.39299 -1.609515 3.086369 1.021956 7.278246 -33.35235 6.542906 -0 19.15597 -0 -6.620804 -6.409787 -1.6059 -5.123593 13.48858 -17.72852 -0 6.968281 -0 3.656534 -23.85533 20.27225 -2.228855 -1.930871 3.917672 3.441076 8.805626 -8.569834 1.717654 19.76144 7.450706 3.800516 -27.4258 10.10484 4.55258 -18.32837 11.03746 87.12997 31.60866 -21.42072 -0 0 13.51867 -9.578512 9.792545 4.995955 8.675551 -22.58497 -0.05864821 -91.59179 23.144 17.76528 0 0 -19.81831 11.57566 16.36202 0.455769
1.803797 99.08942 18.45805 -2.072801 3.97708 1.467623 8.131017 -34.96566 6.337094 -0 15.97991 -0 -7.152289 -4.239934 -1.205039 -4.782928 14.493 -16.61622 -0 9.828889 -0 1.555987 -24.23124 18.01758 -1.860225 -1.869849 3.62742 3.670899 8.672633 -8.881321 1.655469 19.20407 7.58507 4.05761 -27.8687 9.960784 4.528786 -17.78038 10.8854 87.50097 31.50257 -22.29772 -0 0 12.65102 -9.709466 10.08494 5.007893 8.830324 -22.94133 0.1108199 -91.3252 23.04682 17.23509 0 0 -20.71412 11.07801 15.79057 0.8666139
2.007235 98.32634 23.22553 -2.543379 4.508016 2.026417 8.823335 -35.38353 6.067376 -0 14.13644 -0 -7.898035 -2.397325 -0.9695778 -4.377091 15.40766 -15.3757 -0 14.10822 -0 -0.6161567 -23.41958 15.39883 -1.370013 -1.818429 3.150794 3.888454 8.583491 -9.167677 1.519526 18.88927 7.684611 4.180038 -28.10326 9.737962 4.44838 -17.12393 10.7836 88.07635 31.35201 -23.17978 -0 0 11.36271 -9.984361 10.35121 5.24485 8.469888 -23.05768 -0.05741868 -90.90997 23.18384 16.71231 0 0 -21.38404 10.2498 15.05352 1.756127
2.181997 97.87847 28.68831 -2.977963 4.468191 2.631213 9.249001 -34.27551 5.69256 -0 13.87121 -0 -8.763233 -1.340913 -1.007238 -3.875601 15.96169 -14.13965 -0 19.88317 -0 -2.732137 -21.23167 12.71412 -0.7204979 -1.743575 2.553733 4.0066 8.519622 -9.311225 1.363452 18.94824 7.718554 4.123128 -27.97582 9.487858 4.257819 -16.36609 10.73429 88.80514 31.09539 -23.87586 -0 0 9.782374 -10.49168 10.68436 5.693072 7.591686 -22.83566 -0.5898643 -90.41233 23.65437 16.25892 0 0 -21.64651 9.085995 14.34474 3.169062
2.326534 97.83661 34.71471 -3.295958 3.719466 3.14685 9.362442 -31.48873 5.240607 -0 15.08948 -0 -9.62434 -1.466413 -1.403542 -3.284463 15.76237 -13.0554 -0 27.06935 -0 -4.61917 -17.74437 10.41458 0.05883807 -1.612385 2.00021 3.938621 8.478993 -9.197063 1.256814 19.44445 7.646518 3.894645 -27.35498 9.241572 3.960124 -15.5457 10.74548 89.54672 30.74636 -24.1662 -0 0 8.170656 -11.243 11.15631 6.259678 6.371107 -22.26465 -1.381342 -89.93846 24.42781 15.9169 0 0 -21.35127 7.715335 13.88248 4.949327
2.4358 98.24575 41.03817 -3.403715 2.281369 3.396484 9.205566 -27.17515 4.824359 -0 17.23328 -0 -10.36883 -2.877301 -2.144736 -2.680896 14.34009 -12.22032 -0 35.45279 -0 -6.159545 -13.43892 8.962544 0.8297884 -1.384646 1.739853 3.642228 8.491168 -8.764469 1.265269 20.30939 7.423343 3.579522 -26.20966 8.978771 3.648903 -14.75352 10.82784 90.07419 30.41549 -23.87532 -0 0 6.887036 -12.11091 11.75418 6.771223 5.156051 -21.48724 -2.186932 -89.61985 25.30647 15.70576 0 0 -20.45373 6.386429 13.81974 6.733963
2.504836 99.09437 47.31545 -3.230385 0.3877418 3.238221 8.845248 -21.79367 4.561706 -0 19.31082 -0 -10.9186 -5.229111 -3.030005 -2.218049 11.23513 -11.63619 -0 44.68146 -0 -7.300695 -9.183275 8.631076 1.34407 -1.004279 2.024498 3.157848 8.617058 -8.044371 1.422143 21.33303 7.017563 3.326071 -24.68345 8.624664 3.499302 -14.15407 10.98198 90.11091 30.29701 -22.92047 -0 0 6.295714 -12.84806 12.3491 7.063524 4.316234 -20.76718 -2.722508 -89.58961 25.99926 15.67797 0 0 -19.06085 5.364542 14.12212 8.106403
2.54443 100.3018 53.24787 -2.73081 -1.532455 2.669966 8.254333 -15.90149 4.407016 -0 20.11031 -0 -11.2164 -7.850883 -3.661561 -2.047102 6.138965 -11.21679 -0 53.91575 -0 -7.913441 -5.948914 9.303568 1.33049 -0.430717 2.954979 2.599078 8.905609 -7.147476 1.696935 22.26428 6.443558 3.25749 -23.10772 8.105133 3.645708 -13.98473 11.18514 89.42764 30.56565 -21.28997 -0 0 6.631047 -13.28835 12.75509 7.193394 4.000649 -20.30614 -2.84343 -89.93899 26.31231 15.99556 0 0 -17.44665 4.747884 14.50847 8.900848
2.584869 101.6799 58.70041 -1.884372 -2.997075 1.881644 7.325585 -9.895412 4.086208 -0 18.67648 -0 -11.23445 -10.12035 -3.633166 -2.151684 -0.8227997 -10.81353 -0 61.1614 -0 -7.740953 -4.336923 10.46424 0.6826051 0.2672481 4.338542 2.082799 9.318784 -6.217872 1.984273 22.95777 5.779377 3.338236 -21.89017 7.43692 3.984277 -14.47669 11.39973 87.99974 31.17941 -19.01193 -0 0 7.888484 -13.62436 12.8902 7.571735 4.033569 -20.0695 -2.642666 -90.61732 26.2803 16.8506 0 0 -16.03787 4.362997 14.6173 9.363233
2.649334 102.9067 63.73423 -0.8106559 -3.738198 1.147128 6.149199 -4.055808 3.370435 -0 15.09051 -0 -11.04333 -11.73305 -2.891544 -2.214422 -8.729634 -10.18568 -0 63.49527 -0 -6.731329 -4.261256 11.61676 -0.366483 0.8790481 5.701189 1.66673 9.728047 -5.410346 2.149958 23.39372 5.132519 3.357621 -21.26148 6.737899 4.175202 -15.67739 11.60173 86.09454 31.787 -16.22519 -0 0 9.814294 -14.33183 12.86598 8.651846 4.131357 -19.88214 -2.328643 -91.33618 26.04345 18.15093 0 0 -15.2495 3.95165 14.32568 9.825696
2.737998 103.6194 68.52271 0.1217564 -3.881585 0.6207712 5.178972 1.218782 2.423642 -0 10.786 -0 -10.79669 -12.72521 -1.873353 -1.744371 -16.04165 -9.019233 -0 59.16805 -0 -5.329139 -5.084075 12.75164 -1.327348 1.223798 6.556456 1.363041 10.01717 -4.868015 2.117127 23.57498 4.58071 3.132345 -21.07508 6.111744 3.979115 -17.33943 11.78501 84.11559 31.98794 -13.23386 -0 0 12.04106 -15.61837 12.77979 10.37675 4.196082 -19.66326 -2.016224 -91.71978 25.64066 19.42659 0 0 -15.11511 3.468121 13.8038 10.26384
2.849594 103.5932 73.23599 0.5233157 -3.760417 0.2738381 4.847438 5.562314 1.638784 -0 7.459325 -0 -10.56766 -13.4471 -1.103407 -0.5018912 -21.57182 -7.198125 -0 49.33769 -0 -4.13011 -6.054517 14.14282 -1.813466 1.318267 6.750927 1.173793 10.12564 -4.63862 1.901332 23.51535 4.167199 2.689782 -20.96764 5.584986 3.475342 -19.07221 11.92957 82.32549 31.697 -10.34546 -0 0 14.28601 -17.13752 12.50095 12.19734 4.288751 -19.41991 -1.698614 -91.66544 25.03226 20.30552 0 0 -15.1546 3.058968 13.24374 10.4356
2.996435 102.8213 78.00655 0.3177439 -3.563213 -0.01857776 5.127886 8.995908 1.199679 -0 5.731244 -0 -10.29225 -14.39474 -0.7260884 1.234132 -25.16513 -5.053145 -0 36.98115 -0 -3.40271 -6.674426 15.81123 -1.775604 1.290007 6.505395 1.084205 9.999937 -4.628259 1.565401 23.29594 3.944763 2.210986 -20.71708 5.174256 2.880165 -20.58463 11.98197 80.75921 31.16229 -7.703962 -0 0 16.41059 -18.40924 11.83076 13.64544 4.43589 -19.10929 -1.351016 -91.42368 24.23953 20.88648 0 0 -14.78505 2.841763 12.69664 10.28141
3.203402 101.4532 82.95568 -0.257731 -3.253712 -0.3848293 5.602298 11.8689 1.003057 -0 5.175699 -0 -9.892325 -15.873 -0.5119798 2.894907 -27.38394 -3.187989 -0 24.87595 -0 -3.061957 -6.764759 17.45056 -1.422432 1.212527 6.167874 1.050525 9.610018 -4.670376 1.183029 23.03127 3.975617 1.886787 -20.34202 4.925719 2.345271 -21.73561 11.87724 79.33092 30.71956 -5.327911 -0 0 18.33546 -19.28375 10.74889 14.65387 4.594241 -18.65055 -0.9806493 -91.30914 23.34787 21.49212 0 0 -13.71975 2.837032 12.13361 9.945425
3.509414 99.70618 88.21123 -0.849905 -2.753182 -0.9064981 5.7629 14.55524 0.8875716 -0 5.19688 -0 -9.340332 -17.72766 -0.1430421 3.962146 -28.85325 -2.158415 -0 14.92644 -0 -2.868659 -6.354581 18.71514 -1.053747 1.053779 6.007282 1.008128 9.029454 -4.61568 0.8542851 22.79829 4.267614 1.841977 -19.95354 4.882927 1.944754 -22.4558 11.57919 77.97265 30.55575 -3.227277 -0 0 19.97843 -19.95804 9.465845 15.42858 4.713909 -18.00578 -0.6245738 -91.46936 22.43104 22.28697 0 0 -11.97406 3.009985 11.53082 9.590565
3.960805 97.82148 93.9059 -1.136765 -2.120324 -1.603257 5.230023 17.24918 0.8286442 -0 5.758078 -0 -8.635352 -19.18214 0.5575463 4.084595 -29.84437 -2.300722 -0 8.37094 -0 -2.586729 -5.618567 19.43568 -0.9557585 0.7017721 6.144575 0.8891565 8.479342 -4.389621 0.7128464 22.60761 4.714016 2.102661 -19.63541 5.043333 1.715466 -22.71691 11.11831 76.77339 30.57443 -1.519853 -0 0 21.24616 -20.74492 8.338403 16.1989 4.766284 -17.23082 -0.3446367 -91.86152 21.54739 23.17513 0 0 -9.763334 3.276669 10.90368 9.333925
4.586149 96.06807 100.158 -0.9219413 -1.601237 -2.417031 3.894333 19.82673 0.9821831 -0 7.74321 -0 -7.8316 -18.83059 1.483993 3.099222 -30.128 -3.589693 -0 5.905316 -0 -2.085701 -4.887314 19.66321 -1.330063 0.03877716 6.543085 0.6510797 8.276605 -4.036341 0.8642755 22.4124 5.104427 2.58141 -19.43434 5.319701 1.675893 -22.56264 10.6208 76.07296 30.42689 -0.5273875 -0 0 22.01158 -21.78568 7.680219 17.00358 4.734168 -16.50992 -0.2161581 -92.3189 20.79861 23.92723 0 0 -7.496831 3.501907 10.29616 9.277799
